Coordinates
version=1
nRows=29
nColumns=18
inDegrees=yes

Units are S.I. units (second, meters, Newtons, ...)
Angles are in degrees.

endheader
time	ground_thorax_rot_x	ground_thorax_rot_y	ground_thorax_rot_z	ground_thorax_tx	ground_thorax_ty	ground_thorax_tz	clav_prot	clav_elev	scapula_abduction	scapula_elevation	scapula_upward_rot	scapula_winging	plane_elv	shoulder_elv	axial_rot	elbow_flexion	pro_sup
      2.34000000	      0.17229503	     -0.83975371	     -8.80946979	     -0.00423131	      0.00403036	     -0.00078352	    -40.07802470	      7.80474969	    -20.85509642	     -2.81286222	     47.38838011	     -9.92630127	     15.68451901	     66.00309940	     -2.19954933	      0.00000000	     34.32000000
      2.35000000	      0.00811545	     -0.89951404	     -8.92887331	     -0.00423131	      0.00403036	     -0.00078352	    -40.11350892	      7.56746769	    -20.86501941	     -2.97343550	     47.33332282	     -9.87264948	     16.14130786	     66.94518534	     -2.06462131	      0.00000000	     34.32000000
      2.36000000	     -0.04028395	     -1.14080695	     -8.96660554	     -0.00423131	      0.00403036	     -0.00078352	    -40.18588852	      7.70551824	    -20.65772051	     -2.92562542	     47.80200298	    -10.00738233	     16.57149899	     67.23439546	     -2.18087755	      0.00000000	     34.32000000
      2.37000000	     -0.08853749	     -1.20720585	     -9.04794054	     -0.00423131	      0.00403036	     -0.00078352	    -40.17225525	      7.78630263	    -20.62560456	     -2.87376729	     47.85382685	    -10.02900981	     16.78645719	     67.94057904	     -2.10018798	      0.00000000	     34.32000000
      2.38000000	     -0.29619784	     -1.26131433	     -9.10681107	     -0.00423131	      0.00403036	     -0.00078352	    -40.19403347	      7.84055871	    -20.60734923	     -2.84614365	     47.94514604	    -10.06639269	     16.83736213	     68.05643055	     -2.10576953	      0.00000000	     34.32000000
      2.39000000	     -0.11062661	     -1.29232789	     -9.12074107	     -0.00423131	      0.00403036	     -0.00078352	    -40.23957142	      8.01464049	    -20.57514962	     -2.74883333	     48.15739747	    -10.16368444	     17.14860880	     68.61428067	     -2.00975416	      0.00000000	     34.32000000
      2.40000000	     -0.12264895	     -1.26547264	     -9.03417388	     -0.00423131	      0.00403036	     -0.00078352	    -40.30820642	      8.12259420	    -20.41934548	     -2.71221867	     48.53890930	    -10.27459542	     17.25203344	     68.82781955	     -2.05351035	      0.00000000	     34.32000000
      2.41000000	      0.49686625	     -1.51450432	     -8.98468524	     -0.00423131	      0.00403036	     -0.00078352	    -40.26768506	      8.70229046	    -19.65497481	     -2.40471606	     49.69306371	    -10.53817245	     16.78498296	     69.15939310	     -2.31735924	      0.00000000	     34.32000000
      2.42000000	      0.32553897	     -1.46463295	     -8.94440397	     -0.00423131	      0.00403036	     -0.00078352	    -40.33045422	      8.57712861	    -19.51458861	     -2.51265965	     49.93147603	    -10.56504472	     16.76003703	     69.53826962	     -2.31991803	      0.00000000	     34.32000000
      2.43000000	      0.17358853	     -1.58760768	     -9.23042548	     -0.00423131	      0.00403036	     -0.00078352	    -40.24719098	      8.17395766	    -19.17380157	     -2.78644639	     50.00519477	    -10.42232588	     16.55826785	     70.35009448	     -2.16779738	      0.00000000	     34.32000000
      2.44000000	     -0.09054630	     -1.59839321	     -9.29506826	     -0.00423131	      0.00403036	     -0.00078352	    -40.26267637	      8.23357328	    -19.14119486	     -2.75410184	     50.10424674	    -10.45684694	     16.60181063	     70.48937519	     -2.16983640	      0.00000000	     34.32000000
      2.45000000	     -0.25084678	     -1.67733739	     -9.35656907	     -0.00423131	      0.00403036	     -0.00078352	    -40.09416260	      8.22694233	    -19.05872471	     -2.72822276	     49.87371219	    -10.34211990	     16.84990408	     71.28386502	     -1.93602491	      0.00000000	     34.32000000
      2.46000000	     -0.24909192	     -1.78852005	     -9.48809563	     -0.00423131	      0.00403036	     -0.00078352	    -40.05406858	      8.30618502	    -18.77552863	     -2.69402005	     50.18594844	    -10.37563712	     16.79720873	     71.51531996	     -1.81173315	      0.00000000	     34.32000000
      2.47000000	     -0.11260521	     -2.06038486	     -9.33143262	     -0.00423131	      0.00403036	     -0.00078352	    -40.01016521	      8.56657711	    -18.27619029	     -2.55934600	     50.84335203	    -10.48958365	     16.87639458	     71.57108121	     -1.87559118	      0.00000000	     34.32000000
      2.48000000	      0.51032384	     -2.52218128	     -9.22942096	     -0.00423131	      0.00403036	     -0.00078352	    -39.83437868	      9.24934320	    -17.27753841	     -2.16012504	     52.05644652	    -10.68765492	     16.27881260	     71.79742190	     -2.07207260	      0.00000000	     34.32000000
      2.49000000	      0.12407964	     -2.46203289	     -9.33839484	     -0.00423131	      0.00403036	     -0.00078352	    -39.78720465	      8.82601918	    -17.35049408	     -2.42026076	     51.67573660	    -10.52221609	     16.51262502	     72.65453607	     -1.86539560	      0.00000000	     34.32000000
      2.50000000	      0.07891291	     -2.68872334	     -9.35485147	     -0.00423131	      0.00403036	     -0.00078352	    -39.86407052	      8.89329513	    -17.18595918	     -2.40493637	     52.06174991	    -10.61509121	     17.03419613	     72.73712132	     -1.93406311	      0.00000000	     34.32000000
      2.51000000	     -0.14741389	     -2.68208488	     -9.39990942	     -0.00423131	      0.00403036	     -0.00078352	    -39.89240487	      8.93558086	    -17.15699491	     -2.38518547	     52.17285082	    -10.65049502	     17.09517944	     72.87201699	     -1.93484108	      0.00000000	     34.32000000
      2.52000000	     -0.01594212	     -2.62333308	     -9.53571543	     -0.00423131	      0.00403036	     -0.00078352	    -40.08980595	      8.94204967	    -17.16060289	     -2.41983887	     52.55897939	    -10.78984840	     17.44112321	     73.47454156	     -1.82803295	      0.00000000	     34.32000000
      2.53000000	     -0.08743586	     -2.69850159	     -9.44213128	     -0.00423131	      0.00403036	     -0.00078352	    -40.20710952	      9.05570378	    -16.98651398	     -2.38045362	     53.05720722	    -10.92269527	     17.69244614	     73.66960165	     -1.88574299	      0.00000000	     34.32000000
      2.54000000	      0.38897210	     -2.83733546	     -9.46728786	     -0.00423131	      0.00403036	     -0.00078352	    -40.46527498	      9.51956386	    -16.59347766	     -2.14982313	     54.26325708	    -11.27135686	     17.70766728	     73.73952816	     -2.12145710	      0.00000000	     34.32000000
      2.55000000	      0.12436371	     -2.84303672	     -9.44644347	     -0.00423131	      0.00403036	     -0.00078352	    -40.50066270	      9.51854292	    -16.53863407	     -2.15988736	     54.39998312	    -11.29937372	     17.76518239	     73.92893179	     -2.12159062	      0.00000000	     34.32000000
      2.56000000	     -0.00181542	     -3.00946582	     -9.68344033	     -0.00423131	      0.00403036	     -0.00078352	    -40.37652327	      8.96981652	    -16.15690817	     -2.52078990	     54.37777627	    -11.09232858	     17.78662014	     74.88871715	     -1.92768776	      0.00000000	     34.32000000
      2.57000000	      0.20390476	     -3.38202624	     -9.72239287	     -0.00423131	      0.00403036	     -0.00078352	    -40.38086183	      9.17237753	    -15.44329983	     -2.42807814	     55.35943730	    -11.21346592	     17.53244563	     74.64766338	     -1.97091324	      0.00000000	     34.32000000
      2.58000000	     -0.03338382	     -3.36702616	     -9.70770067	     -0.00423131	      0.00403036	     -0.00078352	    -40.40523581	      9.18613663	    -15.38903482	     -2.42577753	     55.48079520	    -11.23700324	     17.56544692	     74.81410042	     -1.96764240	      0.00000000	     34.32000000
      2.59000000	     -0.00452153	     -3.57222694	     -9.99974112	     -0.00423131	      0.00403036	     -0.00078352	    -40.34197968	      8.79127847	    -14.86238606	     -2.70272294	     55.83185055	    -11.12145783	     17.48588277	     75.77685394	     -1.79691836	      0.00000000	     34.32000000
      2.60000000	     -0.06594623	     -3.80343834	     -9.78778279	     -0.00423131	      0.00403036	     -0.00078352	    -40.33849682	      9.11280007	    -14.59531810	     -2.50209275	     56.29620482	    -11.23034576	     17.68315134	     75.83769961	     -1.86216994	      0.00000000	     34.32000000
      2.61000000	      0.54727717	     -4.10468957	     -9.67175587	     -0.00423131	      0.00403036	     -0.00078352	    -40.47515731	      9.89258050	    -14.21252651	     -2.02216912	     57.38363874	    -11.55349948	     17.73961029	     75.82053196	     -2.08639835	      0.00000000	     34.32000000
      2.62000000	      0.22293605	     -3.97109426	     -9.81550035	     -0.00423131	      0.00403036	     -0.00078352	    -40.56010468	      9.57365935	    -14.35300276	     -2.23978767	     57.23615252	    -11.51410728	     17.80222307	     76.21862537	     -1.97617234	      0.00000000	     34.32000000
